<svg width="89" height="19" viewBox="0 0 89 19" fill="none" xmlns="http://www.w3.org/2000/svg">
<path d="M17.68 8.832C18.736 9.12 19.536 9.632 20.08 10.368C20.64 11.104 20.92 12.048 20.92 13.2C20.92 14.688 20.44 15.864 19.48 16.728C18.52 17.576 17.2 18 15.52 18H8.896V1.2H14.632C16.2 1.2 17.392 1.544 18.208 2.232C19.04 2.92 19.456 3.936 19.456 5.28C19.456 6.096 19.304 6.808 19 7.416C18.696 8.024 18.256 8.496 17.68 8.832ZM11.512 8.016H14.272C15.104 8.016 15.736 7.848 16.168 7.512C16.6 7.176 16.816 6.6 16.816 5.784C16.816 4.968 16.6 4.392 16.168 4.056C15.736 3.704 15.104 3.528 14.272 3.528H11.512V8.016ZM15.208 15.648C16.136 15.648 16.856 15.44 17.368 15.024C17.88 14.592 18.136 13.928 18.136 13.032C18.136 11.256 17.16 10.368 15.208 10.368H11.512V15.648H15.208Z" fill="white"/>
<path d="M28.753 18.24C27.393 18.24 26.225 17.96 25.249 17.4C24.289 16.84 23.561 16.088 23.065 15.144C22.585 14.2 22.345 13.144 22.345 11.976C22.345 10.872 22.569 9.864 23.017 8.952C23.481 8.024 24.145 7.288 25.009 6.744C25.889 6.2 26.929 5.928 28.129 5.928C29.697 5.928 30.945 6.392 31.873 7.32C32.801 8.232 33.265 9.456 33.265 10.992C33.265 11.408 33.217 11.856 33.121 12.336H24.913C25.073 13.664 25.513 14.624 26.233 15.216C26.969 15.808 27.897 16.104 29.017 16.104C30.281 16.104 31.441 15.832 32.497 15.288L32.737 17.328C31.457 17.936 30.129 18.24 28.753 18.24ZM30.697 10.632C30.697 9.88 30.481 9.264 30.049 8.784C29.617 8.304 28.969 8.064 28.105 8.064C26.489 8.064 25.473 8.92 25.057 10.632H30.697Z" fill="white"/>
<path d="M35.3457 0H37.8417V11.28L41.9217 6.144H44.8497L40.3137 11.736L44.9697 18H42.0177L37.8417 12.288V18H35.3457V0Z" fill="white"/>
<path d="M45.2065 6.144H47.8465L50.9905 15.072L54.1105 6.144H56.7505L52.2385 18H49.7665L45.2065 6.144Z" fill="white"/>
<path d="M60.8852 18.24C59.8452 18.24 58.9892 17.92 58.3172 17.28C57.6612 16.64 57.3332 15.8 57.3332 14.76C57.3332 13.72 57.6932 12.888 58.4132 12.264C59.1492 11.64 60.0372 11.2 61.0772 10.944C62.1172 10.672 63.1732 10.528 64.2452 10.512C64.2292 9.6 64.0292 8.976 63.6452 8.64C63.2772 8.288 62.6772 8.112 61.8452 8.112C61.3332 8.112 60.8212 8.192 60.3092 8.352C59.8132 8.496 59.2612 8.752 58.6532 9.12L58.3652 7.08C58.9572 6.712 59.6052 6.432 60.3092 6.24C61.0292 6.032 61.7652 5.928 62.5172 5.928C63.9892 5.928 65.0612 6.328 65.7332 7.128C66.4052 7.928 66.7412 9.288 66.7412 11.208V13.968C66.7412 14.592 66.7652 15.056 66.8132 15.36C66.8772 15.664 66.9892 15.88 67.1492 16.008C67.3252 16.136 67.5972 16.2 67.9652 16.2H68.2532L67.9652 18.24H67.4132C66.5812 18.24 65.9492 18.112 65.5172 17.856C65.1012 17.6 64.7652 17.2 64.5092 16.656C64.0772 17.152 63.5492 17.544 62.9252 17.832C62.3012 18.104 61.6212 18.24 60.8852 18.24ZM61.6532 16.272C62.1172 16.272 62.5812 16.16 63.0452 15.936C63.5252 15.712 63.9252 15.4 64.2452 15V12.216C61.3652 12.312 59.9252 13.12 59.9252 14.64C59.9252 15.728 60.5012 16.272 61.6532 16.272ZM59.0852 1.8H61.2452V3.816H59.0852V1.8ZM63.7892 1.8H65.9492V3.816H63.7892V1.8Z" fill="white"/>
<path d="M83.548 5.928C85.084 5.928 86.236 6.376 87.004 7.272C87.772 8.168 88.156 9.472 88.156 11.184V18H85.636V11.28C85.636 10.16 85.436 9.344 85.036 8.832C84.636 8.32 83.988 8.064 83.092 8.064C81.236 8.064 80.308 9.128 80.308 11.256V18H77.788V11.52C77.788 10.272 77.572 9.384 77.14 8.856C76.708 8.328 76.068 8.064 75.22 8.064C73.988 8.064 73.06 8.496 72.436 9.36V18H69.94V6.144H71.98L72.172 7.272C73.26 6.376 74.468 5.928 75.796 5.928C77.492 5.928 78.708 6.608 79.444 7.968C80.308 6.608 81.676 5.928 83.548 5.928Z" fill="white"/>
<path d="M0 1H4V18H0V1Z" fill="white"/>
</svg>
